<svg width="36" height="33" viewBox="0 0 36 33" fill="none" xmlns="http://www.w3.org/2000/svg">
<path d="M0 5.52954C0 2.63962 2.34274 0.296875 5.23266 0.296875H30.0867C32.9766 0.296875 35.3194 2.63962 35.3194 5.52954V27.7673C35.3194 30.6573 32.9766 33 30.0867 33H17.6597H13.4112C10.9079 33 8.90401 30.9233 8.99336 28.4216C9.08271 25.9198 7.03907 23.8431 4.53574 23.8431C2.05228 23.8431 0 21.8299 0 19.3464V16.6484V5.52954Z" fill="#293980"/>
<path d="M3.74463 7.62734C3.74463 6.07029 5.00687 4.80804 6.56392 4.80804H29.1183C30.6753 4.80804 31.9376 6.07029 31.9376 7.62734C31.9376 9.18439 30.6753 10.4466 29.1183 10.4466H6.56392C5.00687 10.4466 3.74463 9.18439 3.74463 7.62734Z" fill="#EFA034"/>
<path d="M4.87231 6.42705C4.87231 4.90986 6.10224 3.67993 7.61944 3.67993H29.5964C31.1136 3.67993 32.3435 4.90986 32.3435 6.42705C32.3435 7.94424 31.1136 9.17417 29.5964 9.17417H7.61944C6.10224 9.17417 4.87231 7.94424 4.87231 6.42705Z" fill="#FAD500"/>
<path d="M3.74463 16.6486C3.74463 15.0916 5.00687 13.8293 6.56392 13.8293H29.1183C30.6753 13.8293 31.9376 15.0916 31.9376 16.6486C31.9376 18.2057 30.6753 19.4679 29.1183 19.4679H6.56392C5.00687 19.4679 3.74463 18.2057 3.74463 16.6486Z" fill="#EFA034"/>
<path d="M4.87231 15.5843C4.87231 14.0671 6.10224 12.8372 7.61944 12.8372H29.5964C31.1136 12.8372 32.3435 14.0671 32.3435 15.5843C32.3435 17.1015 31.1136 18.3315 29.5964 18.3315H7.61944C6.10224 18.3315 4.87231 17.1015 4.87231 15.5843Z" fill="#FAD500"/>
<path d="M12.7664 25.6708C12.7664 24.1137 14.0538 22.8515 15.642 22.8515H29.0619C30.6501 22.8515 31.9376 24.1137 31.9376 25.6708C31.9376 27.2278 30.6501 28.4901 29.0619 28.4901H15.642C14.0538 28.4901 12.7664 27.2278 12.7664 25.6708Z" fill="#EFA034"/>
<path d="M14.0295 24.7416C14.0295 23.2244 15.2595 21.9944 16.7767 21.9944H29.5966C31.1138 21.9944 32.3437 23.2244 32.3437 24.7416C32.3437 26.2588 31.1138 27.4887 29.5966 27.4887H16.7767C15.2595 27.4887 14.0295 26.2588 14.0295 24.7416Z" fill="#FAD500"/>
<path d="M30.7583 8.2102C30.9173 8.48008 30.7053 8.66321 30.1222 8.75478L7.63086 8.74514C7.40559 8.74514 7.27308 8.70659 7.23332 8.62948L7.15382 8.47526C7.04781 8.28731 7.25984 8.19092 7.78989 8.19092L30.7583 8.2102Z" fill="#F9E680"/>
<path d="M30.7583 17.2315C30.9173 17.5014 30.7053 17.6845 30.1222 17.7761L7.63086 17.7664C7.40559 17.7664 7.27308 17.7279 7.23332 17.6508L7.15382 17.4966C7.04781 17.3086 7.25984 17.2122 7.78989 17.2122L30.7583 17.2315Z" fill="#F9E680"/>
<path d="M30.781 26.2537C30.8693 26.5236 30.7515 26.7067 30.4276 26.7983L16.4288 26.7887C16.3036 26.7887 16.23 26.7501 16.2079 26.673L16.1638 26.5188C16.1049 26.3308 16.2227 26.2344 16.5171 26.2344L30.781 26.2537Z" fill="#F9E680"/>
</svg>
