<svg width="68" height="68" viewBox="0 0 68 68" fill="none" xmlns="http://www.w3.org/2000/svg">
<circle cx="33.5783" cy="34.0158" r="33.5783" fill="white"/>
<path d="M38.3536 58.1013C38.3424 58.1013 38.3311 58.1008 38.3199 58.1002C38.2056 58.0912 38.0997 58.0354 38.0271 57.9465C36.7213 56.3507 35.853 54.4903 35.3715 52.2593C34.9633 50.3674 34.8749 48.472 34.8085 46.3683L34.1778 26.4706C32.8793 28.0878 31.2047 29.4763 29.5757 30.8277C29.1607 31.1723 28.7316 31.5282 28.3178 31.8801C26.0013 33.8526 23.9685 37.1258 23.375 39.8399C23.3334 40.0297 23.1672 40.1671 22.973 40.1716C22.7793 40.1755 22.6058 40.0477 22.5552 39.8602C21.3901 35.5729 20.2268 30.1081 21.5872 25.8675C21.9178 24.8376 22.3851 23.8404 22.8367 22.8759C23.0991 22.3161 23.3705 21.7367 23.6087 21.1641C24.2985 19.5047 24.6707 18.1876 24.3965 16.7484C24.3576 16.5451 24.4719 16.3435 24.6662 16.2726C25.7794 15.866 26.7085 15.1571 27.6066 14.4718C27.8662 14.2736 28.1342 14.0692 28.3989 13.8783L33.5415 10.1743C34.0455 9.81115 34.5663 9.43614 35.1902 9.16811C35.9138 8.85729 36.6723 8.75762 37.3249 8.88769C37.3891 8.90064 37.4493 8.92824 37.5011 8.96821C39.2191 10.301 40.9298 11.6727 42.5841 12.9993C44.0329 14.1615 45.6754 15.478 46.4829 17.205C47.1507 18.633 47.1755 20.1663 47.1997 21.6495L47.202 21.8015C47.363 31.4477 48.8259 41.0928 51.549 50.4687C51.5783 50.5695 51.5687 50.6776 51.5231 50.7722C50.4611 52.9452 47.7983 54.0916 45.3337 54.9272C45.0465 55.0246 44.7571 55.1203 44.4671 55.2166C42.3499 55.9188 40.1606 56.6446 38.6352 57.9955C38.5564 58.0642 38.4567 58.1013 38.3536 58.1013ZM34.8411 20.7401L35.6525 46.3413C35.7629 49.8172 35.8873 53.7419 38.4167 57.0765C40.035 55.7961 42.15 55.095 44.2002 54.4154C44.4885 54.3196 44.7762 54.2245 45.0617 54.1276C47.3039 53.368 49.7128 52.3488 50.6908 50.5436C47.9768 41.1457 46.5189 31.482 46.3573 21.8161L46.3551 21.6635C46.3326 20.2693 46.3095 18.8278 45.7177 17.5631C44.9935 16.0147 43.4327 14.7629 42.0554 13.6587C40.4303 12.3557 38.7506 11.0088 37.0659 9.70022C36.5991 9.6304 36.0557 9.71599 35.523 9.9446C34.9841 10.176 34.5016 10.5235 34.0348 10.8602L28.8921 14.5642C28.6371 14.7477 28.3854 14.9403 28.1184 15.1436C27.2547 15.8024 26.3644 16.4815 25.2811 16.9381C25.5001 18.6184 24.9629 20.1049 24.388 21.489C24.1425 22.0791 23.8672 22.6669 23.6008 23.2351C23.1599 24.1755 22.7044 25.1479 22.3908 26.1265C21.2449 29.6988 22.0084 34.2761 22.9865 38.1771C23.9049 35.6629 25.7343 32.9708 27.7699 31.2371C28.1877 30.8812 28.619 30.5237 29.0363 30.1774C30.9097 28.6233 32.845 27.0185 34.1345 25.109L33.9971 20.7665L34.8411 20.7401Z" fill="black"/>
<path d="M21.8819 28.2983L21.1904 27.8129C22.659 25.7205 24.9378 24.0999 27.1417 22.5329C27.5747 22.2249 27.9835 21.9343 28.3883 21.6387C30.6655 19.9753 33.196 17.9792 34.4066 15.3276L35.1752 15.6784C33.8801 18.5158 31.2505 20.5947 28.8867 22.3212C28.4773 22.6202 28.0471 22.9259 27.6316 23.2215C25.4856 24.7469 23.2671 26.3247 21.8819 28.2983Z" fill="black"/>
<path d="M22.2498 35.1273L21.4463 34.8666C22.0634 32.964 23.4531 31.7235 24.9442 30.5174C25.0883 30.4008 25.2336 30.2842 25.3789 30.1677C26.7094 29.1001 28.0851 27.9959 28.883 26.5898L29.6172 27.0065C28.7394 28.5533 27.2996 29.7088 25.907 30.8259C25.7623 30.9419 25.6182 31.0579 25.4746 31.1739C24.0866 32.2973 22.7954 33.4454 22.2498 35.1273Z" fill="black"/>
<path d="M45.1119 49.9053L44.2808 49.7555C44.9008 46.3105 44.8045 45.5746 44.4458 42.8352L44.4436 42.8183C44.2577 41.4004 43.9801 39.9612 43.7115 38.5704C43.4576 37.2544 43.1946 35.894 43.0077 34.5426C42.3359 29.6888 42.5989 24.8029 43.7892 20.0195L44.6091 20.2234C43.4452 24.902 43.1879 29.6809 43.8444 34.4272C44.0286 35.7566 44.2887 37.1058 44.541 38.4105C44.8118 39.8142 45.0922 41.2659 45.2814 42.709L45.2837 42.7259C45.6457 45.4958 45.755 46.3314 45.1119 49.9053Z" fill="black"/>
<path d="M41.3033 51.0814L40.4682 50.9559C41.0612 47.0053 40.4086 43.7889 39.6529 40.0647C39.4671 39.1474 39.2745 38.1992 39.0943 37.2065C38.1787 32.1607 37.6083 26.8215 39.6135 21.9609L40.3945 22.283C38.4721 26.942 39.0329 32.1364 39.9254 37.0556C40.1039 38.0393 40.2954 38.9836 40.4806 39.8963C41.2521 43.7 41.9182 46.9839 41.3033 51.0814Z" fill="black"/>
<path d="M37.3853 56.0627L36.7693 55.4849C38.0486 54.1211 40.1264 53.3942 41.6434 52.8632C43.0212 52.3812 44.6609 51.7866 46.3744 51.0343C47.9037 50.3631 49.2439 49.1733 50.0525 47.7695L50.7845 48.1913C49.888 49.7477 48.4043 51.0658 46.7139 51.808C44.974 52.5721 43.3152 53.1735 41.9221 53.6611C40.4079 54.1898 38.5233 54.8498 37.3853 56.0627Z" fill="black"/>
<path d="M24.4465 16.8834C24.0214 16.1621 24.0248 15.3129 24.0304 14.0274C24.031 13.8686 24.0321 13.7014 24.0321 13.5263C24.0388 12.6541 23.8846 12.3596 23.5107 11.6473C23.4651 11.5606 23.4172 11.4688 23.3665 11.3702C23.3108 11.2621 23.3046 11.136 23.3485 11.0228C23.3924 10.9096 23.4831 10.8212 23.5974 10.7796C24.0287 10.6225 24.3795 10.4929 24.7297 10.364C25.0839 10.2334 25.4375 10.1033 25.8734 9.9445C26.0733 9.87186 26.2957 9.95857 26.3931 10.1478C26.4838 10.3235 26.5654 10.4856 26.6409 10.6365C27.0418 11.435 27.2434 11.8359 27.7529 12.1608C28.5294 12.6558 29.0914 12.6163 29.8685 12.5617C30.0318 12.5505 30.2012 12.5386 30.3809 12.5313L30.4152 13.3754C30.2474 13.3821 30.0847 13.3934 29.9276 13.4047C29.0959 13.4632 28.311 13.5178 27.2991 12.8731C26.593 12.4232 26.312 11.8635 25.8863 11.0155C25.8621 10.9671 25.8373 10.9175 25.8114 10.8668C25.5282 10.9704 25.2754 11.0639 25.022 11.1568C24.8013 11.2385 24.58 11.3196 24.339 11.408C24.6813 12.0662 24.8846 12.5251 24.8767 13.5297C24.8767 13.7031 24.8761 13.8709 24.875 14.0314C24.87 15.2172 24.8666 15.9335 25.174 16.4543L24.4465 16.8834Z" fill="black"/>
<path d="M25.2236 59.1757C24.8655 59.1757 24.5553 59.0349 24.2765 58.9088C24.0828 58.8209 23.9004 58.7382 23.7264 58.7128C23.4944 58.6796 23.2331 58.7432 22.9567 58.8108C22.6717 58.8801 22.3485 58.9589 22.0067 58.9403C21.5839 58.9172 21.2224 58.7534 20.9025 58.6087C20.8299 58.576 20.7578 58.5433 20.6852 58.5124C20.3085 58.3525 19.9926 58.3125 19.7949 58.4009C19.6688 58.4572 19.5235 58.4482 19.4053 58.3772C19.287 58.3063 19.211 58.1824 19.2015 58.0445C19.0742 56.2291 19.7899 54.555 20.4819 52.9356C20.8862 51.9902 21.304 51.0121 21.5304 50.0425C21.8902 48.5019 21.9578 46.7073 22.0236 44.9719C22.0918 43.1734 22.1622 41.3141 22.5501 39.653L23.3728 39.845C23.0034 41.4267 22.9347 43.2455 22.8683 45.004C22.8013 46.7794 22.7314 48.615 22.3536 50.2345C22.1103 51.2762 21.6779 52.288 21.2595 53.2672C20.6441 54.707 20.0596 56.0748 20.0331 57.5106C20.0359 57.5106 20.0388 57.5106 20.041 57.5106C20.3378 57.5106 20.6666 57.5855 21.0163 57.7342C21.0945 57.7674 21.1728 57.8029 21.2516 57.8384C21.5276 57.9634 21.7883 58.0816 22.0529 58.0957C22.2697 58.107 22.5068 58.0501 22.7573 57.9887C23.0839 57.9093 23.4539 57.8192 23.8469 57.8755C24.1403 57.9178 24.3987 58.0349 24.6262 58.1379C24.8841 58.255 25.106 58.3558 25.3075 58.3226C25.4573 58.2978 25.5975 58.1931 25.7597 58.0715C25.9742 57.911 26.2169 57.7291 26.5598 57.6661C27.0357 57.5788 27.4366 57.7618 27.7902 57.9228C28.0211 58.0281 28.2395 58.1278 28.4445 58.1362C28.7046 58.1469 28.9541 58.0202 29.2441 57.8727C29.5296 57.7274 29.8533 57.563 30.2357 57.5185C30.6636 57.4684 31.0645 57.5799 31.4181 57.6784C31.7273 57.7646 32.019 57.8451 32.2836 57.8119C32.5336 57.7798 32.7887 57.6762 33.059 57.5664C33.4481 57.4082 33.8895 57.2291 34.3817 57.2561C34.5055 57.2629 34.6728 57.3147 35.1187 57.4611C35.2201 57.4943 35.3564 57.5388 35.4909 57.581C35.0478 54.408 34.2696 51.7261 33.5162 49.1269C33.3895 48.6894 33.2634 48.2552 33.1401 47.8228C33.0854 47.6308 33.0269 47.432 32.9666 47.227C32.5477 45.8041 32.0263 44.0338 32.104 42.135C32.1856 40.1389 32.7087 38.9412 33.6587 36.7672C33.8895 36.2384 34.1514 35.6399 34.4397 34.9546L35.2184 35.2823C34.9279 35.9726 34.6649 36.5746 34.4329 37.1056C33.4948 39.2537 33.0235 40.3321 32.948 42.17C32.876 43.929 33.3754 45.6256 33.7769 46.9888C33.8377 47.1961 33.8974 47.3976 33.9526 47.5919C34.0753 48.0232 34.2009 48.4557 34.3276 48.8921C35.1379 51.685 35.9752 54.5725 36.4082 58.0766C36.4341 58.2877 36.2995 58.4854 36.0934 58.5377C35.893 58.589 35.6627 58.5287 34.8558 58.2641C34.6632 58.201 34.4019 58.1148 34.322 58.0991C34.0224 58.0856 33.7088 58.2139 33.3771 58.3491C33.0685 58.4747 32.7498 58.6042 32.3906 58.6503C31.957 58.7055 31.5505 58.5929 31.1918 58.4932C30.886 58.4082 30.5966 58.3277 30.3336 58.3587C30.1011 58.3857 29.8708 58.5028 29.627 58.6267C29.2812 58.8024 28.8888 59.0011 28.4085 58.9809C28.0385 58.9651 27.7204 58.8198 27.4399 58.692C27.1646 58.5664 26.927 58.4578 26.713 58.4972C26.5649 58.5242 26.4264 58.6278 26.2665 58.7483C26.0581 58.9043 25.7991 59.0986 25.4455 59.1565C25.3689 59.1701 25.2952 59.1757 25.2236 59.1757Z" fill="black"/>
<path d="M24.289 53.7549L23.4995 53.4553C25.1544 49.0937 25.1302 47.2907 25.0868 44.018L25.0863 43.9955C25.0818 43.6441 25.0745 43.2775 25.0666 42.8992C25.0018 39.6575 24.9213 35.6235 26.2755 32.7456L27.0396 33.1054C25.7693 35.8043 25.8476 39.729 25.9106 42.8828C25.918 43.2635 25.9258 43.6317 25.9303 43.9848V44.0073C25.9743 47.2721 26.0002 49.2434 24.289 53.7549Z" fill="black"/>
<path d="M28.6571 53.4455L27.813 53.4213C27.8699 51.4207 27.4909 49.2725 27.1244 47.1953C26.8946 45.8946 26.6576 44.5493 26.5331 43.2644C26.3529 41.4039 26.197 39.4067 26.2764 37.4055C26.3777 34.8463 26.8349 32.8665 27.6751 31.354L28.4138 31.7639C26.5866 35.0557 27.1187 40.5452 27.3744 43.1833C27.496 44.4356 27.7302 45.7645 27.9566 47.0489C28.3299 49.1678 28.7168 51.3587 28.6571 53.4455Z" fill="black"/>
<path d="M31.388 53.081C31.0164 50.7555 30.2652 48.3826 29.5383 46.0886C29.1948 45.0047 28.84 43.8841 28.5303 42.7844C27.9836 40.8423 27.6643 38.5472 27.6542 36.488C27.6418 33.9108 28.1063 31.7508 28.9977 30.2417L29.7252 30.6713C27.9909 33.6073 28.3119 38.8901 29.3434 42.5552C29.6492 43.6414 30.0022 44.7558 30.3435 45.833C31.0794 48.1568 31.8401 50.5595 32.2219 52.947L31.388 53.081Z" fill="black"/>
<path d="M24.9526 19.5112L24.6682 18.7156C27.0084 17.8794 29.1053 16.2628 31.133 14.6991C31.2738 14.5904 31.4145 14.4823 31.5547 14.3742C31.8002 14.1855 32.0525 13.9885 32.3194 13.7796C34.5825 12.0103 37.1467 10.0046 39.1119 10.3014L38.9858 11.1364C37.3804 10.8932 34.8629 12.8628 32.8397 14.4446C32.5717 14.654 32.3183 14.8522 32.07 15.0431C31.9303 15.1507 31.7901 15.2588 31.6493 15.3669C29.5687 16.9717 27.4183 18.63 24.9526 19.5112Z" fill="black"/>
<path d="M39.0519 56.1954C38.8036 56.1954 38.6014 55.9932 38.6014 55.7449C38.6014 55.4966 38.8036 55.2944 39.0519 55.2944C39.3002 55.2944 39.5024 55.4966 39.5024 55.7449C39.5024 55.9932 39.3002 56.1954 39.0519 56.1954ZM39.0519 55.3507C38.8346 55.3507 38.6577 55.5276 38.6577 55.7449C38.6577 55.9623 38.8346 56.1391 39.0519 56.1391C39.2693 56.1391 39.4461 55.9623 39.4461 55.7449C39.4461 55.5276 39.2693 55.3507 39.0519 55.3507Z" fill="black"/>
<path d="M40.6848 55.3511C40.4365 55.3511 40.2344 55.149 40.2344 54.9007C40.2344 54.6523 40.4365 54.4502 40.6848 54.4502C40.9332 54.4502 41.1353 54.6523 41.1353 54.9007C41.1353 55.149 40.9332 55.3511 40.6848 55.3511ZM40.6848 54.5065C40.4675 54.5065 40.2907 54.6833 40.2907 54.9007C40.2907 55.118 40.4675 55.2948 40.6848 55.2948C40.9022 55.2948 41.079 55.118 41.079 54.9007C41.079 54.6833 40.9022 54.5065 40.6848 54.5065Z" fill="black"/>
<path d="M42.5149 54.689C42.2666 54.689 42.0645 54.4869 42.0645 54.2386C42.0645 53.9902 42.2666 53.7881 42.5149 53.7881C42.7632 53.7881 42.9654 53.9902 42.9654 54.2386C42.9654 54.4869 42.7632 54.689 42.5149 54.689ZM42.5149 53.8444C42.2976 53.8444 42.1208 54.0212 42.1208 54.2386C42.1208 54.4559 42.2976 54.6327 42.5149 54.6327C42.7323 54.6327 42.9091 54.4559 42.9091 54.2386C42.9091 54.0212 42.7323 53.8444 42.5149 53.8444Z" fill="black"/>
<path d="M44.3034 54.084C44.0551 54.084 43.8529 53.8819 43.8529 53.6336C43.8529 53.3853 44.0551 53.1831 44.3034 53.1831C44.5517 53.1831 44.7538 53.3853 44.7538 53.6336C44.7538 53.8819 44.5517 54.084 44.3034 54.084ZM44.3034 53.2394C44.086 53.2394 43.9092 53.4162 43.9092 53.6336C43.9092 53.8509 44.086 54.0277 44.3034 54.0277C44.5207 54.0277 44.6975 53.8509 44.6975 53.6336C44.6975 53.4162 44.5207 53.2394 44.3034 53.2394Z" fill="black"/>
<path d="M46.0489 53.4356C45.8005 53.4356 45.5984 53.2335 45.5984 52.9851C45.5984 52.7368 45.8005 52.5347 46.0489 52.5347C46.2972 52.5347 46.4993 52.7368 46.4993 52.9851C46.4993 53.2335 46.2972 53.4356 46.0489 53.4356ZM46.0489 52.591C45.8315 52.591 45.6547 52.7678 45.6547 52.9851C45.6547 53.2025 45.8315 53.3793 46.0489 53.3793C46.2662 53.3793 46.443 53.2025 46.443 52.9851C46.443 52.7678 46.2662 52.591 46.0489 52.591Z" fill="black"/>
<path d="M47.7943 52.6334C47.546 52.6334 47.3439 52.4312 47.3439 52.1829C47.3439 51.9346 47.546 51.7324 47.7943 51.7324C48.0427 51.7324 48.2448 51.9346 48.2448 52.1829C48.2448 52.4312 48.0427 52.6334 47.7943 52.6334ZM47.7943 51.7887C47.577 51.7887 47.4002 51.9655 47.4002 52.1829C47.4002 52.4002 47.577 52.577 47.7943 52.577C48.0117 52.577 48.1885 52.4002 48.1885 52.1829C48.1885 51.9655 48.0117 51.7887 47.7943 51.7887Z" fill="black"/>
<path d="M49.3555 51.4981C49.1072 51.4981 48.905 51.296 48.905 51.0476C48.905 50.7993 49.1072 50.5972 49.3555 50.5972C49.6038 50.5972 49.806 50.7993 49.806 51.0476C49.806 51.296 49.6038 51.4981 49.3555 51.4981ZM49.3555 50.6535C49.1381 50.6535 48.9613 50.8303 48.9613 51.0476C48.9613 51.265 49.1381 51.4418 49.3555 51.4418C49.5728 51.4418 49.7497 51.265 49.7497 51.0476C49.7497 50.8303 49.5728 50.6535 49.3555 50.6535Z" fill="black"/>
<path d="M26.5368 17.542C26.2885 17.542 26.0863 17.3399 26.0863 17.0916C26.0863 16.8433 26.2885 16.6411 26.5368 16.6411C26.7851 16.6411 26.9872 16.8433 26.9872 17.0916C26.9872 17.3399 26.7851 17.542 26.5368 17.542ZM26.5368 16.6974C26.3194 16.6974 26.1426 16.8742 26.1426 17.0916C26.1426 17.3089 26.3194 17.4857 26.5368 17.4857C26.7541 17.4857 26.9309 17.3089 26.9309 17.0916C26.9309 16.8742 26.7541 16.6974 26.5368 16.6974Z" fill="black"/>
<path d="M28.163 16.4444C27.9147 16.4444 27.7125 16.2422 27.7125 15.9939C27.7125 15.7456 27.9147 15.5435 28.163 15.5435C28.4113 15.5435 28.6135 15.7456 28.6135 15.9939C28.6135 16.2422 28.4113 16.4444 28.163 16.4444ZM28.163 15.5998C27.9456 15.5998 27.7688 15.7766 27.7688 15.9939C27.7688 16.2113 27.9456 16.3881 28.163 16.3881C28.3803 16.3881 28.5572 16.2113 28.5572 15.9939C28.5572 15.7766 28.3803 15.5998 28.163 15.5998Z" fill="black"/>
<path d="M29.6897 15.355C29.4414 15.355 29.2393 15.1529 29.2393 14.9046C29.2393 14.6562 29.4414 14.4541 29.6897 14.4541C29.938 14.4541 30.1402 14.6562 30.1402 14.9046C30.1402 15.1529 29.938 15.355 29.6897 15.355ZM29.6897 14.5104C29.4724 14.5104 29.2956 14.6872 29.2956 14.9046C29.2956 15.1219 29.4724 15.2987 29.6897 15.2987C29.9071 15.2987 30.0839 15.1219 30.0839 14.9046C30.0839 14.6872 29.9071 14.5104 29.6897 14.5104Z" fill="black"/>
<path d="M31.1248 14.2764C30.8765 14.2764 30.6743 14.0743 30.6743 13.826C30.6743 13.5776 30.8765 13.3755 31.1248 13.3755C31.3731 13.3755 31.5753 13.5776 31.5753 13.826C31.5753 14.0743 31.3731 14.2764 31.1248 14.2764ZM31.1248 13.4318C30.9074 13.4318 30.7306 13.6086 30.7306 13.826C30.7306 14.0433 30.9074 14.2201 31.1248 14.2201C31.3421 14.2201 31.5189 14.0433 31.5189 13.826C31.5189 13.6086 31.3421 13.4318 31.1248 13.4318Z" fill="black"/>
<path d="M32.5905 13.1783C32.3422 13.1783 32.14 12.9761 32.14 12.7278C32.14 12.4795 32.3422 12.2773 32.5905 12.2773C32.8388 12.2773 33.041 12.4795 33.041 12.7278C33.041 12.9761 32.8388 13.1783 32.5905 13.1783ZM32.5905 12.3337C32.3731 12.3337 32.1963 12.5105 32.1963 12.7278C32.1963 12.9452 32.3731 13.122 32.5905 13.122C32.8078 13.122 32.9846 12.9452 32.9846 12.7278C32.9846 12.5105 32.8078 12.3337 32.5905 12.3337Z" fill="black"/>
<path d="M34.0823 12.0948C33.834 12.0948 33.6318 11.8926 33.6318 11.6443C33.6318 11.396 33.834 11.1938 34.0823 11.1938C34.3306 11.1938 34.5328 11.396 34.5328 11.6443C34.5328 11.8926 34.3306 12.0948 34.0823 12.0948ZM34.0823 11.2502C33.865 11.2502 33.6881 11.427 33.6881 11.6443C33.6881 11.8617 33.865 12.0385 34.0823 12.0385C34.2997 12.0385 34.4765 11.8617 34.4765 11.6443C34.4765 11.427 34.2997 11.2502 34.0823 11.2502Z" fill="black"/>
<path d="M35.7432 11.0328C35.4949 11.0328 35.2927 10.8306 35.2927 10.5823C35.2927 10.334 35.4949 10.1318 35.7432 10.1318C35.9915 10.1318 36.1937 10.334 36.1937 10.5823C36.1937 10.8306 35.9915 11.0328 35.7432 11.0328ZM35.7432 10.1881C35.5258 10.1881 35.349 10.365 35.349 10.5823C35.349 10.7997 35.5258 10.9765 35.7432 10.9765C35.9605 10.9765 36.1374 10.7997 36.1374 10.5823C36.1374 10.365 35.9605 10.1881 35.7432 10.1881Z" fill="black"/>
<path d="M22.1042 56.9402C21.7393 56.9402 21.4133 56.8056 21.094 56.6744C20.7455 56.5308 20.3856 56.3822 19.9003 56.358L19.9425 55.5145C20.5732 55.546 21.0405 55.7386 21.4161 55.8934C21.8744 56.0826 22.0895 56.1603 22.384 56.0325C22.5028 55.9807 22.6262 55.9041 22.7562 55.823C23.0474 55.6417 23.3773 55.4356 23.7974 55.43C23.803 55.43 23.8086 55.43 23.8143 55.43C24.1769 55.43 24.4793 55.582 24.7467 55.7166C24.95 55.8185 25.1415 55.9159 25.3053 55.9131C25.4821 55.9109 25.673 55.7988 25.8943 55.6687C26.1449 55.5212 26.4292 55.354 26.775 55.3123C27.2074 55.2605 27.5841 55.4193 27.9163 55.5595C28.1461 55.6564 28.3629 55.7476 28.5588 55.7543C28.8319 55.7639 29.1242 55.6096 29.4327 55.4475C29.8044 55.2521 30.225 55.0313 30.7177 55.0432C31.0871 55.0527 31.4097 55.1929 31.6946 55.3168C31.9097 55.4109 32.113 55.4993 32.3039 55.519C32.6502 55.555 33.0173 55.3765 33.4064 55.1884C33.5027 55.1417 33.6018 55.0938 33.702 55.0488C34.5433 54.6681 35.3006 54.7059 35.7798 55.1518L35.2044 55.7701C34.9515 55.5347 34.4425 55.6406 34.05 55.818C33.9599 55.8585 33.8698 55.9024 33.7747 55.9486C33.3186 56.1693 32.8022 56.4199 32.2166 56.3591C31.8957 56.3259 31.6091 56.2014 31.3568 56.0911C31.122 55.9886 30.9007 55.8923 30.6963 55.8872C30.4249 55.8816 30.1332 56.0331 29.8258 56.1947C29.4519 56.3917 29.0268 56.6142 28.5307 56.5984C28.1776 56.5866 27.864 56.4542 27.5875 56.3377C27.3178 56.2239 27.0852 56.1254 26.8752 56.1507C26.7052 56.171 26.5188 56.2808 26.3223 56.3963C26.0385 56.5635 25.7164 56.7527 25.3143 56.7572C25.3098 56.7572 25.3048 56.7572 25.2997 56.7572C24.9371 56.7572 24.6347 56.6052 24.3667 56.4706C24.1656 56.3698 23.9753 56.2741 23.8131 56.2741C23.8115 56.2741 23.8098 56.2741 23.8075 56.2741C23.6234 56.2763 23.4286 56.3985 23.2022 56.5393C23.0519 56.6333 22.8959 56.7302 22.7196 56.8067C22.5012 56.9025 22.2973 56.9402 22.1042 56.9402Z" fill="black"/>
<path opacity="0.15" d="M58.1754 11.4023L11.7584 59.7946" stroke="black" stroke-width="6" stroke-linecap="round"/>
</svg>
