<svg xmlns="http://www.w3.org/2000/svg" width="66" height="66" viewBox="0 0 66 66" fill="none">
  <rect x="0.59375" y="0.615234" width="65.2572" height="65.2572" rx="32.6286" fill="#07BC8A" fill-opacity="0.15"/>
  <path d="M52.5482 33.8845L54.9525 29.9735C55.2414 29.503 55.32 28.9437 55.171 28.4187C55.0219 27.8936 54.6574 27.4458 54.1576 27.1736L49.998 24.9107V20.4012C49.998 19.8576 49.7686 19.3362 49.3602 18.9518C48.9517 18.5674 48.3978 18.3515 47.8202 18.3515H43.0313L40.6292 14.4385C40.3391 13.9689 39.8642 13.6258 39.3073 13.4833C39.031 13.4129 38.7427 13.3947 38.459 13.4299C38.1752 13.465 37.9017 13.5529 37.6543 13.6883L33.4947 15.9512L29.3352 13.6863C28.835 13.4145 28.2406 13.3408 27.6827 13.4815C27.1248 13.6222 26.6491 13.9657 26.3603 14.4365L23.956 18.3515H19.1671C18.5895 18.3515 18.0356 18.5674 17.6272 18.9518C17.2188 19.3362 16.9893 19.8576 16.9893 20.4012V24.9086L12.8297 27.1715C12.5815 27.3059 12.364 27.4851 12.1896 27.6989C12.0152 27.9126 11.8874 28.1567 11.8136 28.417C11.7397 28.6774 11.7212 28.949 11.7592 29.2161C11.7972 29.4832 11.8908 29.7406 12.0348 29.9735L14.4391 33.8845L12.0348 37.7954C11.7473 38.2664 11.6693 38.8252 11.8178 39.3501C11.9663 39.875 12.3293 40.3233 12.8276 40.5974L16.9871 42.8603V47.3677C16.9871 47.9113 17.2166 48.4327 17.625 48.8171C18.0334 49.2015 18.5873 49.4174 19.1649 49.4174H23.956L26.3603 53.3325C26.5531 53.6427 26.8284 53.9003 27.1591 54.08C27.4898 54.2597 27.8644 54.3553 28.2463 54.3573C28.6252 54.3573 29.002 54.263 29.3374 54.0806L33.4926 51.8177L37.6521 54.0806C38.1522 54.352 38.7462 54.4257 39.3039 54.2854C39.8616 54.1452 40.3374 53.8025 40.627 53.3325L43.0291 49.4174H47.818C48.3956 49.4174 48.9496 49.2015 49.358 48.8171C49.7664 48.4327 49.9958 47.9113 49.9958 47.3677V42.8603L54.1554 40.5974C54.4032 40.4626 54.6203 40.2832 54.7944 40.0694C54.9684 39.8556 55.096 39.6117 55.1698 39.3514C55.2437 39.0912 55.2623 38.8198 55.2246 38.5528C55.1869 38.2858 55.0937 38.0284 54.9503 37.7954L52.5482 33.8845ZM28.0481 23.6152C28.9148 23.6155 29.7458 23.9398 30.3584 24.5168C30.9711 25.0938 31.3151 25.8762 31.3148 26.6919C31.3145 27.5076 30.9699 28.2898 30.3569 28.8664C29.7439 29.443 28.9126 29.7668 28.0459 29.7665C27.1793 29.7662 26.3482 29.4419 25.7356 28.865C25.123 28.288 24.779 27.5056 24.7792 26.6898C24.7795 25.8741 25.1241 25.0919 25.7371 24.5153C26.3502 23.9387 27.1814 23.615 28.0481 23.6152ZM28.7014 43.2928L25.217 40.8351L38.2837 24.4372L41.7682 26.8948L28.7014 43.2928ZM38.937 44.1127C38.5079 44.1126 38.083 44.0329 37.6866 43.8782C37.2902 43.7235 36.93 43.4968 36.6267 43.2111C36.3234 42.9254 36.0828 42.5863 35.9187 42.2131C35.7546 41.8399 35.6702 41.4399 35.6704 41.036C35.6705 40.6321 35.7552 40.2322 35.9195 39.8591C36.0839 39.486 36.3247 39.147 36.6282 38.8615C36.9318 38.576 37.2921 38.3496 37.6886 38.1951C38.0851 38.0407 38.5101 37.9613 38.9392 37.9614C39.8059 37.9617 40.6369 38.286 41.2496 38.863C41.8622 39.44 42.2062 40.2224 42.2059 41.0381C42.2056 41.8538 41.861 42.636 41.248 43.2126C40.635 43.7892 39.8037 44.113 38.937 44.1127Z" fill="#DFE6ED"/>
  <path d="M52.5482 33.8845L54.9525 29.9735C55.2414 29.503 55.32 28.9437 55.171 28.4187C55.0219 27.8936 54.6574 27.4458 54.1576 27.1736L49.998 24.9107V20.4012C49.998 19.8576 49.7686 19.3362 49.3602 18.9518C48.9517 18.5674 48.3978 18.3515 47.8202 18.3515H43.0313L40.6292 14.4385C40.3391 13.9689 39.8642 13.6258 39.3073 13.4833C39.031 13.4129 38.7427 13.3947 38.459 13.4299C38.1752 13.465 37.9017 13.5529 37.6543 13.6883L33.4947 15.9512L29.3352 13.6863C28.835 13.4145 28.2406 13.3408 27.6827 13.4815C27.1248 13.6222 26.6491 13.9657 26.3603 14.4365L23.956 18.3515H19.1671C18.5895 18.3515 18.0356 18.5674 17.6272 18.9518C17.2188 19.3362 16.9893 19.8576 16.9893 20.4012V24.9086L12.8297 27.1715C12.5815 27.3059 12.364 27.4851 12.1896 27.6989C12.0152 27.9126 11.8874 28.1567 11.8136 28.417C11.7397 28.6774 11.7212 28.949 11.7592 29.2161C11.7972 29.4832 11.8908 29.7406 12.0348 29.9735L14.4391 33.8845L12.0348 37.7954C11.7473 38.2664 11.6693 38.8252 11.8178 39.3501C11.9663 39.875 12.3293 40.3233 12.8276 40.5974L16.9871 42.8603V47.3677C16.9871 47.9113 17.2166 48.4327 17.625 48.8171C18.0334 49.2015 18.5873 49.4174 19.1649 49.4174H23.956L26.3603 53.3325C26.5531 53.6427 26.8284 53.9003 27.1591 54.08C27.4898 54.2597 27.8644 54.3553 28.2463 54.3573C28.6252 54.3573 29.002 54.263 29.3374 54.0806L33.4926 51.8177L37.6521 54.0806C38.1522 54.352 38.7462 54.4257 39.3039 54.2854C39.8616 54.1452 40.3374 53.8025 40.627 53.3325L43.0291 49.4174H47.818C48.3956 49.4174 48.9496 49.2015 49.358 48.8171C49.7664 48.4327 49.9958 47.9113 49.9958 47.3677V42.8603L54.1554 40.5974C54.4032 40.4626 54.6203 40.2832 54.7944 40.0694C54.9684 39.8556 55.096 39.6117 55.1698 39.3514C55.2437 39.0912 55.2623 38.8198 55.2246 38.5528C55.1869 38.2858 55.0937 38.0284 54.9503 37.7954L52.5482 33.8845ZM28.0481 23.6152C28.9148 23.6155 29.7458 23.9398 30.3584 24.5168C30.9711 25.0938 31.3151 25.8762 31.3148 26.6919C31.3145 27.5076 30.9699 28.2898 30.3569 28.8664C29.7439 29.443 28.9126 29.7668 28.0459 29.7665C27.1793 29.7662 26.3482 29.4419 25.7356 28.865C25.123 28.288 24.779 27.5056 24.7792 26.6898C24.7795 25.8741 25.1241 25.0919 25.7371 24.5153C26.3502 23.9387 27.1814 23.615 28.0481 23.6152ZM28.7014 43.2928L25.217 40.8351L38.2837 24.4372L41.7682 26.8948L28.7014 43.2928ZM38.937 44.1127C38.5079 44.1126 38.083 44.0329 37.6866 43.8782C37.2902 43.7235 36.93 43.4968 36.6267 43.2111C36.3234 42.9254 36.0828 42.5863 35.9187 42.2131C35.7546 41.8399 35.6702 41.4399 35.6704 41.036C35.6705 40.6321 35.7552 40.2322 35.9195 39.8591C36.0839 39.486 36.3247 39.147 36.6282 38.8615C36.9318 38.576 37.2921 38.3496 37.6886 38.1951C38.0851 38.0407 38.5101 37.9613 38.9392 37.9614C39.8059 37.9617 40.6369 38.286 41.2496 38.863C41.8622 39.44 42.2062 40.2224 42.2059 41.0381C42.2056 41.8538 41.861 42.636 41.248 43.2126C40.635 43.7892 39.8037 44.113 38.937 44.1127Z" fill="#07BC8A"/>
</svg>