<svg width="25" height="26" viewBox="0 0 25 26" fill="none" xmlns="http://www.w3.org/2000/svg">
<g clip-path="url(#clip0_302_2284)">
<path d="M-0.00878906 9.83704H24.4144V15.1796H-0.00878906V9.83704Z" fill="white"/>
<path d="M20.5983 4.11279H3.80733C1.27839 4.11279 -0.00878906 5.99223 -0.00878906 8.31053V9.83698H24.4144V8.31053C24.4144 5.99223 23.1272 4.11279 20.5983 4.11279Z" fill="#FF9933"/>
<path d="M-0.00878906 16.706C-0.00878906 19.0243 1.27839 20.9038 3.80733 20.9038H20.5983C23.1272 20.9038 24.4144 19.0243 24.4144 16.706V15.1796H-0.00878906V16.706Z" fill="#128807"/>
<path fill-rule="evenodd" clip-rule="evenodd" d="M12.317 10.0712C12.8046 10.0712 13.2812 10.2158 13.6866 10.4868C14.0919 10.7577 14.4078 11.1429 14.5942 11.5934C14.7806 12.0439 14.8292 12.5397 14.7338 13.0178C14.6384 13.496 14.4033 13.9351 14.0583 14.2796C13.7132 14.6241 13.2737 14.8585 12.7954 14.9532C12.3171 15.0478 11.8215 14.9985 11.3712 14.8114C10.921 14.6243 10.5364 14.3078 10.266 13.902C9.99568 13.4962 9.85179 13.0194 9.85254 12.5318C9.85365 11.8789 10.1138 11.2531 10.5758 10.7918C11.0379 10.3304 11.6641 10.0713 12.317 10.0712ZM10.6742 11.1378C10.7165 11.1859 10.7241 11.2374 10.6959 11.2805C10.6839 11.3004 10.6655 11.3155 10.6436 11.3232C10.6269 11.3295 10.6088 11.3315 10.5911 11.3293C10.5733 11.327 10.5564 11.3205 10.5417 11.3103C10.4754 11.4052 10.4171 11.5056 10.3673 11.6102C10.425 11.648 10.444 11.6953 10.425 11.7476C10.4148 11.7742 10.3946 11.7958 10.3687 11.8078C10.3428 11.8197 10.3133 11.8211 10.2864 11.8117C10.259 11.8667 10.1983 12.0987 10.1975 12.1475C10.2228 12.1524 10.2455 12.166 10.2616 12.1861C10.2787 12.206 10.2874 12.2316 10.2861 12.2578C10.2788 12.3295 10.2345 12.3601 10.167 12.3627C10.1563 12.4318 10.1575 12.6631 10.1681 12.7085C10.2399 12.7161 10.2777 12.7474 10.2838 12.802C10.2922 12.8608 10.2639 12.8989 10.1952 12.9256C10.2158 13.039 10.2452 13.1504 10.2838 13.2595C10.3107 13.2514 10.3395 13.2524 10.3658 13.2622C10.3914 13.2733 10.4116 13.2924 10.4223 13.3187C10.4318 13.3393 10.4337 13.3607 10.4288 13.3832C10.4252 13.3999 10.4178 13.4156 10.4071 13.429C10.3965 13.4423 10.3829 13.4531 10.3673 13.4603C10.4185 13.5664 10.475 13.6663 10.5417 13.7602C10.6013 13.7308 10.6532 13.7377 10.6883 13.7797C10.7037 13.7969 10.7125 13.8191 10.7131 13.8423C10.7143 13.8594 10.7113 13.8765 10.7044 13.8922C10.6974 13.9079 10.6868 13.9217 10.6734 13.9323C10.7497 14.0216 10.831 14.1033 10.9195 14.1785C10.9695 14.1346 11.0214 14.1277 11.0661 14.159C11.0863 14.1731 11.1004 14.1918 11.1069 14.2147C11.1116 14.2309 11.1125 14.248 11.1098 14.2646C11.107 14.2812 11.1005 14.2971 11.0909 14.3109C11.1874 14.3773 11.287 14.4345 11.3912 14.4841C11.4317 14.4273 11.4778 14.4082 11.5278 14.4273C11.5496 14.4351 11.5685 14.4493 11.582 14.4681C11.6011 14.4986 11.6038 14.5322 11.5927 14.5681C11.7026 14.607 11.8133 14.6368 11.9278 14.657C11.9503 14.5925 11.9892 14.5624 12.0411 14.5662C12.0651 14.5681 12.0869 14.5753 12.106 14.5917C12.1327 14.6162 12.1453 14.6471 12.143 14.6852C12.2605 14.6936 12.3754 14.6944 12.4895 14.6852C12.4979 14.6116 12.5273 14.5746 12.5864 14.5662C12.6089 14.5631 12.6317 14.5676 12.6513 14.5792C12.6656 14.5872 12.6779 14.5984 12.6872 14.6119C12.6966 14.6254 12.7029 14.6408 12.7055 14.657C12.8207 14.6356 12.9325 14.6062 13.0405 14.5677C13.031 14.4956 13.0485 14.4525 13.097 14.4299C13.1147 14.4224 13.134 14.4193 13.1531 14.4212C13.173 14.4227 13.1909 14.4288 13.2054 14.4418C13.2195 14.4536 13.2313 14.4681 13.2451 14.483C13.3491 14.4339 13.4489 14.3763 13.5435 14.3109C13.5046 14.2498 13.5275 14.1914 13.5591 14.1655C13.5702 14.156 13.583 14.1488 13.5969 14.1444C13.6107 14.1399 13.6253 14.1383 13.6398 14.1395C13.6543 14.1408 13.6684 14.1449 13.6813 14.1516C13.6942 14.1584 13.7056 14.1676 13.7148 14.1788C13.803 14.1033 13.8858 14.0212 13.9598 13.9331C13.9167 13.8839 13.9083 13.832 13.94 13.7873C13.9528 13.7673 13.9725 13.7526 13.9953 13.7461C14.0116 13.7409 14.0288 13.7396 14.0457 13.7422C14.0626 13.7447 14.0787 13.7512 14.0926 13.761C14.1594 13.6648 14.2174 13.5652 14.267 13.4606C14.2113 13.4232 14.1911 13.3794 14.2079 13.3294C14.214 13.3071 14.2274 13.2876 14.246 13.274C14.2609 13.2637 14.2779 13.2569 14.2958 13.2543C14.3136 13.2516 14.3319 13.2532 14.3491 13.2588C14.3739 13.205 14.4357 12.9783 14.4391 12.9233C14.4127 12.9185 14.3889 12.9045 14.372 12.8836C14.3631 12.8733 14.3564 12.8613 14.3524 12.8483C14.3484 12.8353 14.3471 12.8216 14.3487 12.8081C14.3501 12.7839 14.3602 12.7611 14.3769 12.7436C14.3884 12.7315 14.4025 12.7221 14.4181 12.7162C14.4337 12.7102 14.4504 12.7079 14.467 12.7093C14.4765 12.5938 14.4765 12.4778 14.467 12.3624C14.3941 12.3551 14.3594 12.3269 14.3498 12.2693C14.3455 12.2475 14.3488 12.2249 14.359 12.2051C14.3669 12.1899 14.3782 12.1767 14.392 12.1666C14.4058 12.1564 14.4218 12.1496 14.4388 12.1468C14.4187 12.0327 14.389 11.9207 14.3498 11.8117C14.2792 11.8235 14.2357 11.8045 14.2125 11.7556C14.2064 11.7425 14.203 11.7284 14.2025 11.714C14.202 11.6997 14.2043 11.6853 14.2094 11.6718C14.2145 11.6584 14.2222 11.6461 14.2321 11.6356C14.242 11.6252 14.2539 11.6168 14.267 11.611C14.2176 11.5061 14.1592 11.4056 14.0926 11.3106C14.0312 11.34 13.9812 11.3332 13.9461 11.2912C13.9305 11.2734 13.9218 11.2507 13.9217 11.2271C13.921 11.2103 13.9242 11.1936 13.9311 11.1783C13.938 11.163 13.9483 11.1495 13.9614 11.1389C13.886 11.0507 13.804 10.9684 13.716 10.8928C13.6633 10.9378 13.6122 10.9435 13.5687 10.9122C13.5489 10.8991 13.5345 10.8793 13.5279 10.8565C13.5231 10.8405 13.5221 10.8236 13.5249 10.8072C13.5276 10.7907 13.5341 10.7751 13.5439 10.7615C13.4487 10.6952 13.3483 10.6369 13.2435 10.5871C13.2042 10.6436 13.16 10.6623 13.11 10.6455C13.0878 10.6384 13.0685 10.6245 13.0547 10.6058C13.0446 10.5909 13.0382 10.5739 13.0359 10.556C13.0337 10.5382 13.0356 10.5201 13.0417 10.5032C12.9328 10.4638 12.8207 10.434 12.7066 10.4142C12.6849 10.4761 12.6456 10.5081 12.5948 10.5051C12.5711 10.5043 12.5483 10.4957 12.5299 10.4806C12.5163 10.4692 12.5057 10.4546 12.499 10.4381C12.4923 10.4216 12.4897 10.4037 12.4914 10.386C12.3761 10.3762 12.2602 10.3763 12.1449 10.3864C12.1369 10.4551 12.1071 10.4944 12.0564 10.5028C12.0335 10.5076 12.0097 10.5047 11.9888 10.4944C11.9732 10.4867 11.9597 10.4753 11.9493 10.4613C11.9389 10.4473 11.9321 10.431 11.9293 10.4139C11.8152 10.4346 11.703 10.4646 11.5938 10.5035C11.6061 10.5711 11.587 10.6153 11.5404 10.6394C11.5202 10.6497 11.4988 10.6539 11.4752 10.6497C11.4574 10.6473 11.4405 10.6403 11.4263 10.6294C11.412 10.6184 11.4009 10.604 11.3939 10.5875C11.3286 10.6119 11.121 10.7321 11.0935 10.7623C11.1218 10.8187 11.1153 10.8687 11.0764 10.9046C11.0654 10.9143 11.0525 10.9217 11.0386 10.9264C11.0247 10.931 11.01 10.9329 10.9954 10.9317C10.9807 10.9306 10.9665 10.9265 10.9535 10.9198C10.9404 10.913 10.9289 10.9037 10.9195 10.8924C10.8315 10.9677 10.7494 11.0497 10.6742 11.1378Z" fill="#010088"/>
<path fill-rule="evenodd" clip-rule="evenodd" d="M13.3815 14.3689C13.3769 14.364 13.3723 14.3605 13.3689 14.3552C13.147 14.016 12.9246 13.6773 12.7015 13.339C12.6965 13.3294 12.6908 13.3199 12.6862 13.3092C12.6343 13.1882 12.5835 13.0672 12.5305 12.9467C12.5287 12.9404 12.5263 12.9344 12.5232 12.9287C12.5019 12.9367 12.4824 12.9459 12.4595 12.9547L12.4671 12.9741C12.5148 13.0913 12.5606 13.2088 12.6091 13.326C12.6221 13.3573 12.6274 13.3901 12.6343 13.4229C12.6717 13.5981 12.7068 13.774 12.7446 13.9495L12.8736 14.5765C12.8742 14.578 12.8744 14.5796 12.8742 14.5813C12.874 14.5829 12.8734 14.5844 12.8724 14.5857L12.8671 14.5723C12.7625 14.2521 12.6553 13.9324 12.5503 13.6122C12.5293 13.5496 12.5106 13.4878 12.4877 13.4252C12.4771 13.3939 12.4736 13.3618 12.4687 13.3294C12.4553 13.2386 12.4439 13.147 12.429 13.0562C12.4271 13.0344 12.4236 13.0131 12.4206 12.9921C12.4197 12.9833 12.4183 12.9747 12.4164 12.9661C12.3935 12.9684 12.3725 12.9715 12.3496 12.9741C12.3496 12.9833 12.3504 12.9928 12.3511 13.0024C12.3645 13.1142 12.3759 13.2264 12.392 13.3378C12.4004 13.3989 12.3962 13.4588 12.3927 13.5198C12.3904 13.5714 12.387 13.6229 12.3847 13.6748C12.3778 13.7793 12.3725 13.8835 12.3653 13.9877L12.3538 14.2029C12.3473 14.325 12.3397 14.4468 12.3332 14.5681C12.3301 14.6025 12.3294 14.6376 12.3259 14.6712L12.3168 14.5555L12.305 14.3052L12.2912 14.082C12.2874 14.0056 12.2824 13.9297 12.2782 13.8534C12.2748 13.8034 12.2729 13.7534 12.2698 13.7042C12.2656 13.6252 12.2607 13.5462 12.2569 13.4679C12.2531 13.4262 12.2541 13.3842 12.2599 13.3428C12.2679 13.2863 12.274 13.2287 12.2809 13.1714C12.2885 13.1149 12.295 13.0581 12.3019 13.0024C12.3027 12.9936 12.3027 12.9844 12.3038 12.9741L12.237 12.9654C12.2351 12.9806 12.2317 12.9955 12.229 13.0108C12.2132 13.1273 12.1969 13.2439 12.1802 13.3603C12.1756 13.4057 12.1577 13.4477 12.1424 13.4901C12.0249 13.848 11.9069 14.2064 11.7879 14.5639C11.7852 14.5704 11.7841 14.5765 11.7791 14.5826C11.7791 14.578 11.7791 14.5746 11.781 14.5704C11.8302 14.3292 11.8798 14.0877 11.931 13.8465C11.9638 13.6862 11.9978 13.5263 12.0302 13.3664L12.0394 13.3401C12.0886 13.2191 12.1359 13.097 12.1863 12.976C12.188 12.9689 12.1906 12.962 12.1939 12.9554C12.1729 12.9464 12.1518 12.9376 12.1306 12.9291C12.1279 12.936 12.1237 12.9417 12.1214 12.9486C12.0687 13.0699 12.0172 13.1916 11.9646 13.313C11.9613 13.3221 11.9572 13.3309 11.9523 13.3393C11.7272 13.6804 11.5027 14.022 11.2788 14.364C11.2757 14.3691 11.2717 14.3736 11.267 14.3773C11.2689 14.3712 11.2723 14.3663 11.2746 14.3609L11.8264 13.2668C11.8312 13.2569 11.8371 13.2475 11.844 13.239L12.0798 12.9226C12.0848 12.9173 12.0878 12.9123 12.0924 12.9066C12.0729 12.8925 12.0573 12.8795 12.0378 12.8646C12.0336 12.8696 12.0298 12.8738 12.0264 12.8787C11.944 12.9821 11.8627 13.0863 11.7821 13.1894C11.773 13.1989 11.7646 13.2088 11.7543 13.2176C11.4536 13.4866 11.1529 13.7541 10.851 14.0236C10.8449 14.0285 10.8388 14.0339 10.8312 14.0373C10.8346 14.0339 10.8365 14.0297 10.8388 14.027C11.0865 13.7503 11.3322 13.474 11.5787 13.1974C11.5929 13.1821 11.607 13.1668 11.6203 13.1504C11.6486 13.1176 11.6803 13.0886 11.7146 13.0627L11.9886 12.8471C11.9947 12.8425 11.9993 12.8375 12.0062 12.8329C11.9926 12.8147 11.9786 12.7967 11.9642 12.7791C11.9581 12.7829 11.9531 12.7868 11.9474 12.791C11.8424 12.8696 11.7371 12.9474 11.6322 13.0264C11.6204 13.0353 11.6079 13.0431 11.5948 13.0497C11.2364 13.2306 10.8762 13.4115 10.5171 13.5923C10.5102 13.5954 10.5037 13.5992 10.4957 13.5992L10.5102 13.5889L11.1803 13.1501C11.2971 13.0733 11.4143 12.9966 11.5303 12.9196C11.5402 12.9138 11.5505 12.9089 11.5593 12.9043C11.681 12.8528 11.8024 12.8009 11.923 12.749C11.9287 12.7467 11.9344 12.7444 11.9413 12.741L11.9157 12.678C11.9085 12.6799 11.9039 12.6818 11.8982 12.6837C11.7745 12.733 11.652 12.7829 11.5276 12.8318C11.502 12.8413 11.4742 12.8459 11.4471 12.8516L10.6133 13.0249C10.5083 13.0474 10.4015 13.0695 10.2961 13.0913C10.2919 13.0923 10.2874 13.0918 10.2836 13.0898C10.3126 13.0806 10.3416 13.0703 10.3702 13.0608C10.7304 12.9421 11.0903 12.8238 11.4494 12.7043C11.4776 12.6948 11.5078 12.6921 11.5364 12.6875C11.6524 12.6715 11.768 12.6547 11.8829 12.6383C11.8899 12.6371 11.897 12.6355 11.9039 12.6337C11.9016 12.6116 11.8982 12.5895 11.8962 12.5666L11.8405 12.5727L11.61 12.6005C11.5669 12.6063 11.5242 12.6108 11.4818 12.6162C11.4715 12.6173 11.4616 12.6177 11.4517 12.6173L11.209 12.6032L11.0655 12.5952L10.8182 12.5807L10.4576 12.5608C10.3706 12.5563 10.2858 12.5505 10.1992 12.5444C10.213 12.5433 10.2282 12.541 10.2431 12.541L10.5389 12.5242L10.9296 12.5021L11.2532 12.4838L11.4562 12.4715C11.4643 12.4712 11.4738 12.4723 11.4818 12.4731L11.7146 12.5009L11.8795 12.5208H11.8962C11.8982 12.499 11.9016 12.4784 11.9039 12.4548C11.8898 12.4517 11.8737 12.4494 11.8596 12.4467C11.7577 12.4326 11.6566 12.4177 11.5547 12.4029C11.5335 12.4004 11.5124 12.3976 11.4914 12.3945C11.4797 12.3929 11.4682 12.3902 11.457 12.3864C11.1536 12.2868 10.8522 12.1865 10.5492 12.0869C10.4648 12.0592 10.3806 12.0313 10.2965 12.0029C10.2893 12.001 10.2824 11.9978 10.2763 11.9934L10.3293 12.0041L10.9769 12.1388C11.1502 12.175 11.3261 12.2109 11.4994 12.2475C11.5098 12.2498 11.52 12.253 11.5299 12.2571C11.652 12.3052 11.773 12.3548 11.8962 12.4036L11.9146 12.4109C11.923 12.3899 11.9321 12.3697 11.9413 12.3479C11.9351 12.3442 11.9286 12.341 11.9218 12.3384C11.8005 12.2872 11.6795 12.2349 11.5585 12.1827C11.549 12.1786 11.5398 12.1739 11.531 12.1685C11.1887 11.9445 10.848 11.7194 10.5053 11.495C10.5008 11.4925 10.4971 11.4886 10.495 11.4839L10.5087 11.4916C10.8499 11.6633 11.1914 11.835 11.5333 12.0064C11.5898 12.0346 11.6448 12.0686 11.6951 12.1071C11.7783 12.1716 11.863 12.2334 11.9478 12.2968C11.9535 12.301 11.9585 12.3048 11.9646 12.3086L12.0065 12.2556L11.9917 12.2426L11.6814 11.9987C11.6707 11.9903 11.6623 11.9816 11.6532 11.9724C11.383 11.6698 11.1124 11.3668 10.843 11.0642C10.8391 11.061 10.8361 11.057 10.8342 11.0523C10.8422 11.0531 10.8453 11.0584 10.8487 11.0619C11.0124 11.2069 11.1746 11.3519 11.3372 11.4969L11.7577 11.8717C11.7654 11.8785 11.7726 11.8869 11.7795 11.8945L12.0203 12.2006C12.0264 12.2075 12.031 12.2147 12.0378 12.2239L12.0932 12.1815C12.0897 12.1762 12.0851 12.172 12.0825 12.167C12.0039 12.0621 11.9256 11.9568 11.8463 11.8522C11.8381 11.8399 11.8306 11.8271 11.8237 11.814C11.6406 11.4534 11.4589 11.0913 11.2769 10.7302C11.2735 10.7234 11.27 10.718 11.2693 10.7108C11.2727 10.7146 11.2761 10.718 11.2784 10.7215L11.6684 11.3176L11.9443 11.7373C11.9539 11.7534 11.9646 11.7701 11.9707 11.7877C12.0222 11.9052 12.0718 12.0232 12.1218 12.1407C12.1252 12.146 12.1275 12.1518 12.1309 12.1586L12.1943 12.1323L12.1874 12.1163C12.1397 11.9972 12.0932 11.8781 12.0447 11.7598C12.0313 11.7297 12.0264 11.6984 12.0199 11.6671C11.9783 11.4683 11.9382 11.2691 11.8966 11.0699C11.8558 10.8783 11.8169 10.6883 11.7768 10.4959C11.776 10.4948 11.7768 10.4933 11.7783 10.4895L11.8119 10.5913C11.9317 10.9512 12.0504 11.3118 12.168 11.6725C12.1779 11.7007 12.1813 11.7316 12.1855 11.761C12.1996 11.861 12.2138 11.9617 12.2298 12.0625C12.2324 12.0815 12.2336 12.1006 12.2374 12.1216L12.3038 12.1132V12.088C12.2943 12.0083 12.284 11.9281 12.2748 11.8488C12.2691 11.8022 12.2649 11.7568 12.2584 11.7114C12.2546 11.6808 12.2546 11.6499 12.2584 11.6194C12.2611 11.5675 12.2649 11.516 12.2672 11.4645L12.2859 11.1535C12.2893 11.0977 12.2905 11.0413 12.2939 10.9855C12.2988 10.913 12.3027 10.8394 12.3069 10.7665C12.3103 10.7131 12.313 10.6593 12.3153 10.6062C12.3183 10.5433 12.3233 10.4807 12.3286 10.4181C12.3301 10.4353 12.3309 10.4528 12.3317 10.4711C12.337 10.5478 12.3408 10.6245 12.3454 10.7016L12.3653 11.0512L12.3771 11.2473C12.3832 11.3607 12.3885 11.4744 12.395 11.5877C12.3969 11.6049 12.3977 11.6209 12.3988 11.6377C12.4038 11.682 12.395 11.7259 12.3912 11.7698L12.3668 11.9697C12.363 12.0075 12.3572 12.0453 12.3527 12.0834C12.3519 12.0926 12.3519 12.1025 12.3492 12.1136C12.3729 12.117 12.3943 12.1193 12.4179 12.1224C12.4213 12.106 12.4229 12.0907 12.4255 12.0747C12.4439 11.9506 12.4614 11.8266 12.479 11.7018C12.4805 11.6927 12.4843 11.6831 12.4866 11.6736C12.611 11.3004 12.7331 10.9268 12.8568 10.5528C12.8629 10.5356 12.8675 10.5192 12.877 10.5028C12.876 10.5115 12.8746 10.5202 12.8728 10.5288C12.8171 10.7989 12.7591 11.0684 12.7037 11.3378C12.6789 11.4641 12.6526 11.5908 12.6263 11.7171C12.6244 11.7276 12.6211 11.7377 12.6164 11.7472L12.469 12.1155C12.4664 12.1208 12.4645 12.1266 12.4618 12.1334C12.4847 12.1422 12.5034 12.151 12.5255 12.1598L12.5343 12.1415L12.6881 11.7801C12.6942 11.7679 12.6988 11.756 12.7068 11.7461L13.3727 10.7302C13.3769 10.7249 13.3803 10.7196 13.3868 10.7157C13.3842 10.7211 13.3822 10.7264 13.3788 10.7318L12.8312 11.8194C12.8255 11.8297 12.8198 11.84 12.8129 11.8491C12.7335 11.9548 12.6537 12.0605 12.5755 12.1655C12.5717 12.1715 12.5675 12.1772 12.5629 12.1827L12.6171 12.225C12.6214 12.2205 12.6254 12.2156 12.6289 12.2105C12.7098 12.1075 12.7904 12.0041 12.8724 11.901C12.8815 11.8894 12.8915 11.8787 12.9026 11.869C13.204 11.5996 13.5059 11.3305 13.8077 11.0619C13.8127 11.0577 13.8161 11.0535 13.8242 11.0512L13.8142 11.0634C13.691 11.2027 13.5677 11.3412 13.4425 11.4797C13.2937 11.6457 13.1468 11.8114 12.9991 11.9774C12.9915 11.9858 12.9823 11.993 12.9743 11.9999L12.6641 12.2437L12.6488 12.2559C12.6633 12.2743 12.6763 12.2918 12.6915 12.3101L12.7079 12.2979L13.0258 12.0598C13.0339 12.054 13.0423 12.0487 13.051 12.0438C13.4174 11.8598 13.7814 11.6766 14.1455 11.4927C14.1516 11.49 14.1565 11.4877 14.163 11.4877C14.1462 11.4988 14.1306 11.5095 14.1138 11.5198C13.7845 11.7362 13.4551 11.9526 13.1247 12.1689C13.1155 12.1743 13.1071 12.1796 13.0972 12.1838C12.9754 12.2365 12.8526 12.2884 12.732 12.3407L12.7125 12.3483C12.7228 12.3697 12.7301 12.3899 12.7392 12.4113L12.7568 12.4055C12.8793 12.3571 13.001 12.3063 13.1247 12.2594C13.1552 12.2472 13.1888 12.2418 13.222 12.2349L13.7841 12.1182C13.9589 12.0823 14.1321 12.0457 14.3073 12.0094C14.3233 12.006 14.3382 12.0025 14.355 11.9995C14.3592 11.9995 14.363 11.9987 14.3691 12.001L14.3157 12.0186C13.9428 12.1418 13.5711 12.2647 13.1983 12.3864C13.1701 12.3964 13.1388 12.399 13.1094 12.4036C13.0258 12.4162 12.9434 12.4273 12.8621 12.4391C12.8323 12.4433 12.803 12.4479 12.7732 12.4517L12.7514 12.4555C12.7537 12.478 12.7572 12.499 12.7587 12.5234L12.8163 12.5173L13.0224 12.4929C13.0739 12.4864 13.1277 12.4792 13.1815 12.4742C13.2056 12.4723 13.23 12.4746 13.2548 12.4757C13.3071 12.478 13.3594 12.4826 13.4139 12.4849L13.7223 12.5032C13.7681 12.5059 13.8139 12.5078 13.8612 12.5109L14.1756 12.5288C14.25 12.5334 14.3267 12.5368 14.4008 12.5414C14.4191 12.5424 14.4375 12.5441 14.4557 12.5463L14.4 12.5509L14.1691 12.5635L13.8833 12.5803L13.6677 12.5918C13.5685 12.5979 13.4673 12.6036 13.3674 12.6101C13.3124 12.6124 13.2559 12.6177 13.2006 12.6181C13.1689 12.6188 13.1357 12.6127 13.1048 12.6093C13.037 12.6014 12.9692 12.5932 12.9014 12.5849L12.7713 12.5692H12.7587C12.7572 12.5914 12.7537 12.6131 12.7514 12.6364C12.886 12.6563 13.0205 12.6758 13.1552 12.6948C13.1949 12.6998 13.2296 12.7154 13.267 12.7272L14.3523 13.0856C14.3594 13.087 14.366 13.09 14.3718 13.0943C14.3626 13.0928 14.3538 13.0913 14.3447 13.0905L13.4021 12.894L13.1533 12.8421C13.1453 12.8398 13.1346 12.8367 13.1258 12.8326C13.0033 12.7841 12.8804 12.7345 12.7572 12.6852L12.7408 12.6795C12.7318 12.7004 12.7226 12.7212 12.7129 12.7417L12.7331 12.7513C12.8549 12.8032 12.9758 12.8547 13.0968 12.907C13.1063 12.9112 13.1159 12.9161 13.1258 12.923L14.1417 13.5885C14.1466 13.5923 14.1531 13.5969 14.1573 13.6042C14.1523 13.6011 14.1466 13.5992 14.1424 13.5962L13.6131 13.3306C13.4284 13.2367 13.2422 13.1436 13.0556 13.0497C13.0437 13.0438 13.0325 13.0365 13.0224 13.0279C12.9174 12.9497 12.8114 12.8711 12.7064 12.7921C12.7017 12.7881 12.6968 12.7846 12.6915 12.7814C12.677 12.799 12.6641 12.8161 12.6488 12.8345L12.6633 12.8459C12.7656 12.9276 12.8697 13.0092 12.9724 13.0905C12.9841 13.0989 12.9947 13.1086 13.0041 13.1195L13.8127 14.0243C13.816 14.0289 13.8186 14.0339 13.8203 14.0392C13.8161 14.0346 13.8104 14.0316 13.8062 14.0281C13.5028 13.7568 13.1991 13.487 12.8949 13.2161C12.888 13.21 12.8819 13.203 12.8766 13.1955L12.6293 12.8803C12.6259 12.8753 12.6217 12.8707 12.6175 12.8658C12.5999 12.8803 12.5828 12.8932 12.5652 12.9085C12.5667 12.9131 12.5702 12.918 12.5732 12.9226L12.8133 13.2424C12.8201 13.2517 12.8262 13.2615 12.8316 13.2718C13.0136 13.6328 13.1953 13.9946 13.3769 14.3559C13.3799 14.3609 13.3818 14.3663 13.3826 14.372H13.3815V14.3689Z" fill="#010088"/>
<path fill-rule="evenodd" clip-rule="evenodd" d="M13.3735 14.3643C13.3775 14.3682 13.3799 14.3726 13.3831 14.3762C13.3811 14.377 13.3811 14.3782 13.3787 14.3786C13.3779 14.373 13.3751 14.3694 13.3743 14.3643H13.3735Z" fill="#010088"/>
</g>
<defs>
<clipPath id="clip0_302_2284">
<rect width="24.4232" height="24.4232" fill="white" transform="translate(-0.00878906 0.678345)"/>
</clipPath>
</defs>
</svg>
