<svg width="48" height="48" viewBox="0 0 48 48" fill="none" xmlns="http://www.w3.org/2000/svg">
<rect width="48" height="48" rx="24" fill="white"/>
<path d="M36.0161 23.348L37.5582 20.7687C37.7435 20.4584 37.7939 20.0896 37.6983 19.7433C37.6027 19.397 37.3689 19.1017 37.0484 18.9222L34.3804 17.4298V14.4558C34.3804 14.0973 34.2332 13.7534 33.9713 13.4999C33.7093 13.2464 33.354 13.104 32.9836 13.104H29.912L28.3713 10.5234C28.1852 10.2137 27.8806 9.98737 27.5234 9.89341C27.3462 9.84693 27.1613 9.83495 26.9793 9.85815C26.7973 9.88136 26.6219 9.93929 26.4632 10.0286L23.7953 11.521L21.1273 10.0272C20.8065 9.84799 20.4252 9.79941 20.0674 9.8922C19.7096 9.98498 19.4045 10.2115 19.2192 10.522L17.6771 13.104H14.6055C14.2351 13.104 13.8798 13.2464 13.6178 13.4999C13.3559 13.7534 13.2087 14.0973 13.2087 14.4558V17.4284L10.5408 18.9208C10.3816 19.0094 10.242 19.1276 10.1302 19.2686C10.0183 19.4095 9.93636 19.5705 9.88898 19.7422C9.8416 19.9139 9.82975 20.093 9.85411 20.2692C9.87847 20.4454 9.93855 20.6151 10.0309 20.7687L11.573 23.348L10.0309 25.9273C9.84652 26.2379 9.79649 26.6064 9.89173 26.9526C9.98698 27.2988 10.2198 27.5944 10.5394 27.7752L13.2073 29.2676V32.2402C13.2073 32.5987 13.3545 32.9426 13.6164 33.1961C13.8784 33.4496 14.2337 33.592 14.6041 33.592H17.6771L19.2192 36.174C19.3429 36.3786 19.5195 36.5485 19.7316 36.667C19.9437 36.7855 20.184 36.8485 20.4289 36.8499C20.6719 36.8499 20.9136 36.7877 21.1287 36.6674L23.7939 35.175L26.4618 36.6674C26.7825 36.8464 27.1635 36.895 27.5212 36.8025C27.8789 36.71 28.1841 36.484 28.3699 36.174L29.9106 33.592H32.9822C33.3526 33.592 33.7079 33.4496 33.9699 33.1961C34.2318 32.9426 34.379 32.5987 34.379 32.2402V29.2676L37.047 27.7752C37.2059 27.6863 37.3451 27.568 37.4568 27.427C37.5684 27.286 37.6503 27.1251 37.6976 26.9535C37.745 26.7819 37.7569 26.6029 37.7327 26.4268C37.7086 26.2507 37.6488 26.081 37.5568 25.9273L36.0161 23.348ZM20.3018 16.5754C20.8577 16.5756 21.3907 16.7895 21.7836 17.17C22.1766 17.5505 22.3972 18.0665 22.397 18.6045C22.3968 19.1425 22.1758 19.6583 21.7826 20.0386C21.3895 20.4189 20.8563 20.6324 20.3004 20.6322C19.7445 20.632 19.2115 20.4182 18.8185 20.0376C18.4256 19.6571 18.205 19.1411 18.2051 18.6031C18.2053 18.0652 18.4263 17.5493 18.8195 17.169C19.2127 16.7888 19.7459 16.5752 20.3018 16.5754ZM20.7208 29.5528L18.4859 27.932L26.8669 17.1175L29.1018 18.7383L20.7208 29.5528ZM27.2859 30.0935C27.0107 30.0934 26.7382 30.0409 26.4839 29.9389C26.2296 29.8369 25.9986 29.6874 25.8041 29.499C25.6095 29.3105 25.4552 29.0869 25.35 28.8408C25.2447 28.5946 25.1906 28.3308 25.1907 28.0645C25.1908 27.7981 25.2451 27.5343 25.3505 27.2883C25.4559 27.0422 25.6104 26.8187 25.8051 26.6304C25.9998 26.4421 26.2309 26.2927 26.4852 26.1909C26.7395 26.089 27.0121 26.0367 27.2873 26.0368C27.8432 26.0369 28.3762 26.2508 28.7692 26.6313C29.1621 27.0119 29.3827 27.5279 29.3826 28.0658C29.3824 28.6038 29.1614 29.1196 28.7682 29.4999C28.375 29.8802 27.8418 30.0937 27.2859 30.0935Z" fill="#293980"/>
</svg>
